<svg viewBox="11.4391 9.69156 144 144" xmlns="http://www.w3.org/2000/svg" xmlns:xlink="http://www.w3.org/1999/xlink" id="Layer_1" overflow="hidden"><defs/><rect x="11.4391" y="9.69156" width="144" height="144" fill="#00A0DF"/><g><path d="M136.571 74.9401C136.571 72.9763 135.351 71.3518 134.277 69.9138 133.359 68.6862 132.49 67.5329 132.49 66.3498 132.49 64.7409 133.397 63.7058 134.794 63.7058 135.491 63.7058 136.066 63.9709 136.621 64.2307 137.193 64.4978 137.785 64.7741 138.507 64.7741 139.482 64.7741 140.351 63.7385 140.351 62.9206 140.351 61.9333 139.302 60.9094 137.543 60.9094 133.516 60.9094 129.934 65.4729 129.934 69.0671 129.934 71.0246 131.129 72.5524 132.182 73.8952 133.032 74.9787 133.766 75.9123 133.766 76.8732 133.766 78.4826 132.277 79.4479 130.843 79.4479 129.408 79.4479 128.406 78.548 127.602 77.822 127.002 77.2878 126.483 76.8229 125.932 76.8229 125.152 76.8229 124.975 78.4694 124.975 79.051 124.975 79.9816 126.891 81.5227 129.073 81.5227 132.379 81.5227 136.571 78.4221 136.571 74.9401" fill="#FFFFFF"/><path d="M48.694 49.632C48.611 49.632 48.5211 49.7189 48.5211 49.7995L48.5211 50.7683C48.5211 50.8361 48.5661 50.8947 48.6382 50.9255 48.6451 50.9255 49.2379 50.9841 49.2379 50.9841L49.9879 51.0534C50.9645 51.2082 51.2223 51.3796 51.2223 51.8703 51.2223 52.6921 50.2985 55.2824 49.0191 58.8674L47.8786 62.0983C46.8932 64.9509 45.3629 68.9401 44.0132 72.4577 42.4039 76.6579 41.1315 79.9699 41.1315 80.4128 41.1315 80.9465 41.4215 81.0759 42.6031 81.0759 43.9087 81.0759 44.4917 80.8732 44.6227 80.3806 46.8745 72.9426 53.0895 64.4582 56.2887 64.4582 57.3004 64.4582 57.6618 64.8112 57.6618 65.822 57.6618 67.4733 56.2632 70.5749 54.9098 73.5798 53.7145 76.2277 52.5874 78.7287 52.5874 79.9108 52.5874 81.0026 53.0778 81.5563 54.0504 81.5563 57.2417 81.5563 59.6403 78.6936 61.568 76.3923L61.8414 76.0651 61.8414 76.0651C61.8462 76.0578 61.8882 75.9562 61.8882 75.9562L61.8335 75.84C61.8395 75.8474 61.1754 75.0588 61.1754 75.0588 61.1637 75.0329 61.1265 75.0095 61.0845 74.9982 61.0387 74.9919 60.986 75.0036 60.943 75.0417 59.8551 76.1901 58.0153 77.9138 57.4957 77.987 57.3502 77.9982 57.2536 77.987 57.1988 77.9299 57.1265 77.8562 57.1129 77.7019 57.1461 77.4284 57.1792 77.1843 57.5191 76.3679 57.9879 75.2419 59.2057 72.321 61.236 67.4411 61.236 64.5524 61.236 62.238 60.1325 60.9094 58.2066 60.9094 54.3161 60.9094 51.1832 65.3479 49.6773 67.4782 49.3316 67.9724 49.0025 68.4353 48.9165 68.4548 48.8903 68.4548 48.8688 68.4475 48.861 68.4353 48.7965 68.34 49.0132 67.8317 49.4098 66.9133 49.8307 65.9382 50.4683 64.4621 51.3395 62.1916 54.2613 54.5656 55.5036 50.488 55.5036 50.1447 55.5036 49.6901 55.0768 49.632 54.6608 49.632L48.694 49.632Z" fill="#FFFFFF"/><path d="M40.153 76.8317C40.1715 76.7844 40.1675 76.7038 40.1295 76.6579 40.1245 76.6501 39.4624 75.9499 39.4624 75.9499 39.4497 75.9177 39.4078 75.8889 39.3551 75.8815 39.32 75.8747 39.277 75.8889 39.2575 75.9133 39.2643 75.9123 39.1792 75.9851 39.1792 75.9851 37.9733 77.0983 35.6334 78.9958 33.5387 79.1403 32.7369 79.2023 31.9801 78.9577 31.4186 78.4631 30.7281 77.8591 30.3326 76.9011 30.2652 75.6823 30.1245 72.5417 32.7975 67.779 35.4645 64.986 36.8981 63.4831 38.2135 62.6564 39.1685 62.6564 40.2828 62.6564 40.9821 63.4792 41.6578 64.2775 42.2505 64.9748 42.8073 65.6345 43.5874 65.6345 43.8999 65.6345 44.2329 65.4772 44.4821 65.2194 44.7632 64.9221 44.9058 64.5407 44.8912 64.1433 44.8345 62.9138 43.6988 60.9567 40.8941 60.9094 37.6852 60.8542 33.6852 62.8024 30.7008 65.8776 27.8561 68.8122 26.3745 72.2824 26.5387 75.6467 26.6618 78.4768 28.1871 81.4968 32.1207 81.4968 36.0757 81.4968 39.5757 77.9548 40.153 76.8317L40.153 76.8317Z" fill="#FFFFFF"/><path d="M91.9752 69.6218C91.8941 69.7907 91.6695 70.2351 91.6159 70.2253 91.5963 70.2253 91.5621 70.2204 91.5621 70.2204 91.5669 70.2204 91.5729 70.0705 91.5729 70.0705 91.5855 69.8835 91.7838 69.0612 92.0319 68.0183 92.5044 66.0412 93.1538 63.3356 93.1538 62.5642 93.1538 61.5456 92.6002 60.989 91.5923 60.989 89.4694 60.989 86.2643 64.4733 85.1451 66.3415 85.1285 66.3449 85.1109 66.383 85.1089 66.4172 85.1061 66.4221 85.1061 66.4279 85.1061 66.4309 85.1061 66.4724 85.1227 66.5104 85.1509 66.5402L85.1509 66.5402 85.7838 67.1984C85.7984 67.2312 85.8483 67.26 85.9009 67.26 85.9557 67.26 86.0054 67.2292 86.0288 67.1853 86.0259 67.1862 86.2184 66.9748 86.2184 66.9748 86.2243 66.9685 86.3785 66.7702 86.3785 66.7702 87.0973 65.8674 88.5934 63.988 89.3678 63.988 89.7848 63.988 90.0211 64.4123 90.0211 65.1594 90.0211 67.0324 87.9557 72.7507 86.5855 76.5378 85.8102 78.6745 85.2544 80.2277 85.2544 80.5212 85.2544 80.9353 85.4108 81.1228 85.7721 81.1228L87.5503 81.1228C87.9245 81.1228 88.0445 80.8918 88.2995 80.3342 88.3121 80.3107 89.1793 78.2448 89.6695 77.238 93.1958 70.0344 95.1354 66.3518 96.6139 64.9157 97.5954 63.9616 98.2964 63.5329 98.8053 63.5622 99.1958 63.5861 99.4391 63.8776 99.6998 64.1921 99.9811 64.5378 100.272 64.8918 100.788 64.9265 101.153 64.9475 101.495 64.8195 101.775 64.5524 102.213 64.1374 102.473 63.4245 102.473 62.6437 102.473 61.3327 101.557 60.8679 100.771 60.8679 97.5445 60.8679 95.1608 63.2429 91.9752 69.6218Z" fill="#FFFFFF"/><path d="M80.8765 60.5158C80.5954 60.6013 80.4293 60.8542 80.2691 61.0979 80.0816 61.384 79.8999 61.6579 79.5621 61.6579 79.2672 61.6579 78.9673 61.5925 78.6227 61.5197 78.1499 61.4235 77.5621 61.2971 76.7682 61.2971 67.8571 61.2971 63.1861 73.281 63.1861 77.4216 63.1861 80.2321 64.7359 81.487 66.2633 81.487 68.1675 81.487 70.7594 80.8454 74.0288 75.82 74.0288 75.82 74.7515 74.5974 74.8434 74.5974 74.8854 74.5974 74.9079 74.6018 74.9253 74.6193 74.9566 74.6569 74.9663 74.7321 74.9253 74.842L74.6675 75.446C74.2554 76.3361 73.4957 77.987 73.4957 79.5012 73.4957 80.2199 73.6714 80.76 74.0172 81.1037 74.3219 81.3991 74.7477 81.5466 75.2964 81.5402 78.3864 81.487 81.0602 77.5012 82.0669 76.0017 82.0582 76.0119 82.1031 75.923 82.1031 75.923L82.0621 75.8078 81.3893 75.0109C81.2964 74.9372 81.2105 74.9401 81.1499 75.0109L80.4605 75.8518C79.5464 76.9963 78.4098 78.4143 77.7163 78.4143 77.5563 78.4143 77.4566 78.3859 77.3999 78.3249 77.3151 78.2385 77.2906 78.0686 77.3082 77.7248 77.3609 76.7624 79.2399 71.8273 80.7495 67.8601 81.8649 64.9328 82.8278 62.403 82.8628 61.9943 82.8649 61.9016 82.8521 61.5925 82.5739 61.4616L82.5816 61.4616 81.3736 60.6472C81.3678 60.6418 81.3141 60.6164 81.3141 60.6164 81.1813 60.5422 81.0114 60.4592 80.8765 60.5158ZM66.7477 76.4655C66.7477 70.653 71.3639 62.5764 75.9088 62.5764 77.4137 62.5764 78.2838 63.4626 78.2838 65.0075 78.2838 67.405 71.9762 78.4431 68.0503 78.4431 67.2262 78.4431 66.7477 78.1218 66.7477 76.4655Z" fill="#FFFFFF"/><path d="M109.883 75.8962C109.883 79.2126 112.046 81.5227 115.143 81.5227 118.795 81.5227 122.656 78.0378 123.571 76.8342 123.62 76.7687 123.601 76.6872 123.553 76.6452L123.558 76.6501 122.956 75.9177C122.877 75.8591 122.79 75.8542 122.729 75.8962L122.231 76.2624C121.024 77.1643 118.785 78.8381 117.132 78.8381 115.089 78.8381 113.823 77.5417 113.823 75.446 113.823 72.9025 115.065 71.0124 115.973 69.6296 115.973 69.6296 116.057 69.5026 116.084 69.4631 116.132 69.4665 116.427 69.4841 116.427 69.4841L118.332 69.5485C121.656 69.5485 127.868 67.9606 127.868 64.1433 127.868 62.5764 126.415 60.9094 123.718 60.9094 118.004 60.9094 109.883 68.6579 109.883 75.8962ZM123.054 62.1887C124.068 62.1887 124.774 62.8869 124.774 63.8854 124.774 66.3415 121.943 67.7829 117.017 67.8703 117.907 66.2165 120.598 62.1887 123.054 62.1887Z" fill="#FFFFFF"/><path d="M108.219 76.1301C108.277 76.0529 108.242 75.9782 108.23 75.9499 108.215 75.9123 107.535 75.0588 107.535 75.0588 107.504 75.0217 107.46 75.0036 107.413 75.0036 107.368 75.0036 107.327 75.0217 107.295 75.0563L107.065 75.3132C105.333 77.2292 104.372 78.2854 103.58 78.3322 103.49 78.3371 103.359 78.3186 103.254 78.2136 103.135 78.0964 103.078 77.8918 103.097 77.6315 103.145 76.5622 104.888 71.5441 108.418 62.2854L110.981 55.655C112.326 52.1994 112.999 50.465 113.004 50.2263 113.013 50.0808 112.972 49.9567 112.894 49.8693 112.768 49.7316 112.542 49.6726 112.192 49.6726L106.206 49.6726C106.116 49.6726 106.045 49.7355 106.029 49.8298 106.029 49.8342 105.998 50.7907 105.998 50.7907 105.998 50.863 106.045 50.9406 106.12 50.9528 106.125 50.9528 107.454 51.0715 107.454 51.0715 108.311 51.215 108.652 51.5017 108.625 52.0588 108.594 52.8972 104.734 62.4689 104.734 62.4689 102.661 67.6276 99.1704 76.592 99.0621 78.6862 99.0153 79.6252 99.2378 80.3776 99.6998 80.8684 100.118 81.3029 100.71 81.5227 101.467 81.5227 103.901 81.5227 106.332 78.4904 107.938 76.4812L108.215 76.1301 108.219 76.1301ZM106.12 50.9528 106.12 50.9528Z" fill="#FFFFFF"/><path d="M26.5581 94.134C26.5581 96.9318 28.778 98.4602 30.9508 99.5871L31.8804 100.049C34.0542 101.119 34.9391 102.242 34.9391 103.917 34.9391 105.829 33.7028 107.173 31.9331 107.173 29.0895 107.173 27.5114 104.22 26.8228 102.461L26.8023 102.415 25.8395 102.74 25.8454 102.784C26.152 104.587 26.4937 106.532 26.7243 107.296L26.7321 107.319 27.2027 107.494 28.4547 107.937C29.3004 108.251 30.3589 108.429 31.3687 108.429 35.3141 108.429 38.0738 105.985 38.0738 102.476 38.0738 99.177 35.5602 97.6809 33.6696 96.8352L32.9235 96.4943C30.5123 95.3918 29.527 94.3254 29.527 92.8107 29.527 91.3166 30.4352 89.8059 32.4488 89.8059 34.8131 89.8059 35.7116 91.6633 36.2808 93.4816L36.2946 93.5275 37.3131 93.3342 37.3013 93.2834C37.0475 91.841 36.8619 90.5598 36.7321 89.3654L36.7281 89.3342 36.0523 89.1154 35.4664 88.9436C34.7281 88.6809 33.7262 88.5256 32.7925 88.5256 29.1236 88.5256 26.5581 90.8273 26.5581 94.134Z" fill="#FFFFFF"/><path d="M40.1754 98.8078C40.1754 103.595 43.5055 108.429 50.9391 108.429 52.8571 108.429 55.3727 107.865 56.4352 107.565 56.9566 106.389 57.6167 103.948 57.9332 102.692L57.945 102.639 57.0337 102.437 57.0153 102.468C55.5132 105.515 54.1051 107.173 50.9391 107.173 46.8297 107.173 44.069 103.509 44.069 98.0539 44.069 94.2463 45.8688 89.8059 50.9391 89.8059 53.9156 89.8059 55.5387 91.0812 56.3688 94.0686L56.3805 94.1105 57.3023 93.9875 57.1656 92.6896 56.7536 89.2766 56.7174 89.2766 56.2028 89.1555C55.2066 88.9201 53.5465 88.5256 51.4664 88.5256 44.8228 88.5256 40.1754 92.7492 40.1754 98.8078Z" fill="#FFFFFF"/><path d="M79.7076 88.9768 71.3961 88.9768 71.3961 89.8879 71.4449 89.8937C73.5689 90.0617 73.8394 90.2043 73.8394 93.3977L73.8394 97.2453 65.0874 97.2453 65.0874 93.3977C65.0874 90.2043 65.3512 90.0617 67.4361 89.8937L67.487 89.8879 67.487 88.9768 59.0533 88.9768 59.0533 89.8879 59.0973 89.8937C61.5582 90.0695 61.7311 90.301 61.7311 93.3977L61.7311 103.577C61.7311 106.645 61.5425 106.903 59.2085 107.086L59.1665 107.093 59.1665 107.998 67.5973 107.998 67.5973 107.093 67.5503 107.086C65.3628 106.915 65.0874 106.766 65.0874 103.577L65.0874 98.6906 73.8394 98.6906 73.8394 103.577C73.8394 106.673 73.6704 106.903 71.2076 107.086L71.1588 107.093 71.1588 107.998 79.7047 107.998 79.7047 107.093 79.6598 107.086C77.4508 106.911 77.2124 106.78 77.2124 103.577L77.2124 93.3977C77.2124 90.301 77.3727 90.0695 79.7134 89.8937L79.7614 89.8879 79.7614 88.9768 79.7076 88.9768Z" fill="#FFFFFF"/><path d="M108.874 88.9768 102.128 88.9768 102.128 89.8879 103.183 89.9631C103.762 90.0129 104.06 90.1184 104.214 90.3459 104.308 90.4758 104.355 90.6525 104.355 90.9035 104.355 91.2121 104.285 91.6281 104.135 92.2062 104.071 92.4758 102.469 98.7922 101.219 103.015 100.977 102.42 96.1656 89.2404 96.1656 89.2404L96.1538 89.2043 94.9371 89.2043C94.9371 89.2043 90.5944 102.823 90.5338 103.01 90.3365 102.393 87.1627 91.7385 87.1627 91.7385 87.0425 91.3273 86.987 91.01 86.987 90.7736 86.987 90.5871 87.0211 90.4504 87.0904 90.342 87.2448 90.1066 87.5748 90.0246 88.0944 89.9562 88.0993 89.9562 89.0329 89.8879 89.0329 89.8879L89.0329 88.9768 81.0651 88.9768 81.0651 89.8879 81.1128 89.8937C82.6675 90.0695 83.1471 90.2316 83.9234 92.7062L88.7252 108.235 90.0963 108.235C90.0963 108.235 94.5602 94.8293 94.6168 94.6516 94.8355 95.2072 99.5582 108.204 99.5582 108.204L99.5748 108.235 100.933 108.235 100.941 108.199C103.622 99.2072 105.832 92.8967 105.857 92.8303 106.813 90.173 107.043 90.0617 108.877 89.8937L108.925 89.8879 108.925 88.9768 108.874 88.9768ZM94.5963 94.6027 94.5963 94.6027ZM101.243 103.071 101.243 103.071Z" fill="#FFFFFF"/><path d="M113.879 93.5588C113.902 93.6291 116.068 99.7307 116.118 99.8625L111.628 99.8625C111.674 99.7307 113.841 93.6291 113.866 93.5588L113.879 93.5588ZM117.525 94.0764 115.553 88.7629 115.514 88.7658 114.288 88.8947 108.354 104.139C107.356 106.744 107.033 106.856 105.261 107.087L105.216 107.093 105.216 107.998 111.779 107.998 111.779 107.093 110.924 106.991C110.291 106.918 109.97 106.799 109.822 106.568 109.751 106.46 109.718 106.325 109.718 106.147 109.718 105.877 109.802 105.503 109.973 104.993L110.129 104.528C110.508 103.378 110.938 102.07 111.27 101.321L116.599 101.321C117.216 102.883 117.894 104.616 118.176 105.463 118.29 105.826 118.362 106.103 118.362 106.314 118.362 106.428 118.343 106.524 118.294 106.6 118.189 106.774 117.928 106.886 117.401 106.964L116.546 107.098 116.546 107.998 124.307 107.998 124.307 107.093 124.26 107.087C122.638 106.915 122.218 106.774 121.213 104.139L117.525 94.0764Z" fill="#FFFFFF"/><path d="M131.318 91.5881C131.318 90.9152 131.318 90.424 131.536 90.3098 131.597 90.2785 131.896 90.1828 132.844 90.1828 133.695 90.1828 136.467 90.4318 136.467 93.6711 136.467 95.9787 135.033 97.2453 132.432 97.2453L131.318 97.2453 131.318 91.5881ZM125.733 88.9768 125.68 88.9768 125.68 89.8879 125.727 89.8937C127.751 90.0617 128.01 90.2043 128.01 93.3977L128.01 103.577C128.01 106.766 127.729 106.915 125.548 107.086L125.503 107.093 125.503 107.998 132.798 107.998C135.133 107.998 137.115 107.587 138.395 106.833 140.174 105.759 141.04 104.309 141.04 102.393 141.04 99.757 139.115 97.9367 135.895 97.4973 137.327 97.1887 139.944 95.9562 139.944 93.2912 139.944 91.7834 139.401 90.6887 138.29 89.9416 137.171 89.2336 135.991 88.9768 133.777 88.9768L125.733 88.9768ZM132.257 98.385C135.481 98.385 137.327 99.967 137.327 102.724 137.327 105.686 135.337 106.736 133.479 106.736 132.635 106.763 132.17 106.65 131.868 106.358 131.406 105.911 131.318 104.985 131.318 103.529L131.318 98.385 132.257 98.385Z" fill="#FFFFFF"/></g></svg>