<svg viewBox="0 0 24 24" xmlns="http://www.w3.org/2000/svg" xmlns:xlink="http://www.w3.org/1999/xlink" fill="none" overflow="hidden"><defs><clipPath id="Icon_Icons_Science_Molecule=300__a"><path d="M0 0 24 0 24 24 0 24Z" fill="#FFFFFF"/></clipPath></defs><g fill="#000000" clip-path="url(#Icon_Icons_Science_Molecule=300__a)"><path d="M22.203 13.856C23.2277 12.9868 23.3538 11.4515 22.4846 10.4268 22.3989 10.3257 22.305 10.2318 22.204 10.146 22.344 9.792 22.467 9.439 22.574 9.089 23.46 6.199 23.14 3.799 21.671 2.329 20.202 0.861 17.802 0.539 14.913 1.425 13.9036 1.74089 12.9277 2.15487 11.999 2.661 11.0716 2.15546 10.0969 1.74183 9.089 1.426 6.199 0.54 3.799 0.861 2.329 2.329 0.862 3.8 0.54 6.2 1.426 9.088 1.72 10.048 2.136 11.026 2.661 12 2.137 12.974 1.721 13.952 1.426 14.911 0.541 17.801 0.861 20.201 2.33 21.671 3.255 22.595 4.55 23.065 6.103 23.065 7.016 23.065 8.019 22.903 9.088 22.575 10.048 22.281 11.026 21.865 12 21.34 12.974 21.864 13.952 22.28 14.91 22.575 15.98 22.903 16.984 23.065 17.897 23.065 19.45 23.065 20.744 22.595 21.669 21.671 23.138 20.202 23.459 17.802 22.574 14.913 22.466 14.563 22.343 14.21 22.204 13.856ZM19.313 12C19.313 11.276 19.901 10.687 20.625 10.687 21.3499 10.7217 21.9094 11.3374 21.8747 12.0623 21.8424 12.7386 21.3014 13.2797 20.625 13.312 19.9005 13.3115 19.3131 12.7245 19.312 12ZM15.243 2.5C16.206 2.205 17.099 2.059 17.897 2.059 19.147 2.059 20.167 2.417 20.875 3.125 22.035 4.285 22.257 6.287 21.499 8.759 21.411 9.048 21.309 9.339 21.197 9.631 20.7615 9.52567 20.3054 9.54263 19.879 9.68 19.107 8.61401 18.2509 7.61148 17.319 6.682 16.0592 5.41376 14.6615 4.29044 13.152 3.333 13.8261 3.00202 14.5249 2.72385 15.242 2.501ZM2.5 8.759C1.742 6.287 1.964 4.286 3.124 3.126 3.832 2.418 4.852 2.06 6.101 2.06 6.901 2.06 7.793 2.207 8.757 2.502 9.445 2.713 10.144 2.993 10.845 3.334 9.33666 4.29069 7.93999 5.41299 6.681 6.68 5.41315 7.93985 4.29017 9.33753 3.333 10.847 3.00169 10.1733 2.72319 9.47484 2.5 8.758ZM8.757 21.5C6.284 22.258 4.284 22.036 3.124 20.876 1.964 19.716 1.742 17.714 2.5 15.242 2.71 14.554 2.99 13.855 3.332 13.154 4.28857 14.663 5.41088 16.0604 6.678 17.32 7.93812 18.588 9.33615 19.7109 10.846 20.668 10.144 21.01 9.445 21.289 8.756 21.5ZM7.474 16.524C6.052 15.101 4.855 13.558 3.948 12 4.855 10.441 6.054 8.898 7.477 7.475 8.899 6.053 10.441 4.855 11.999 3.949 13.557 4.856 15.1 6.054 16.523 7.477 17.413 8.368 18.216 9.307 18.915 10.265 17.9568 11.2046 17.9417 12.7432 18.8814 13.7014 18.8925 13.7127 18.9037 13.7239 18.915 13.735 18.1913 14.7257 17.3916 15.6585 16.523 16.525 15.1 17.947 13.558 19.145 11.999 20.052 10.441 19.145 8.898 17.947 7.475 16.523ZM20.871 20.876C19.711 22.036 17.711 22.258 15.238 21.5 14.551 21.29 13.852 21.01 13.151 20.668 14.6605 19.7112 16.0581 18.5886 17.318 17.321 18.2504 16.391 19.1068 15.3878 19.879 14.321 20.3044 14.4584 20.7594 14.4757 21.194 14.371 21.306 14.663 21.407 14.954 21.496 15.243 22.254 17.716 22.032 19.716 20.871 20.876Z" stroke="none" stroke-width="1" stroke-linecap="butt" stroke-linejoin="miter" stroke-miterlimit="4" fill="#0000CA" fill-opacity="1"/><path d="M12 8.436C10.0331 8.43876 8.43965 10.0331 8.438 12 8.44185 13.9653 10.0347 15.5572 12 15.56 13.9657 15.5578 15.5591 13.9657 15.563 12 15.5613 10.0327 13.9673 8.43821 12 8.436ZM12 14.436C10.6552 14.4343 9.5652 13.3448 9.563 12 9.563 10.6536 10.6536 9.56166 12 9.56 13.3468 9.5611 14.438 10.6532 14.438 12 14.4358 13.3452 13.3452 14.4349 12 14.436Z" stroke="none" stroke-width="1" stroke-linecap="butt" stroke-linejoin="miter" stroke-miterlimit="4" fill="#0000CA" fill-opacity="1"/></g></svg>