<svg viewBox="0 0 24 24" xmlns="http://www.w3.org/2000/svg" xmlns:xlink="http://www.w3.org/1999/xlink" fill="none" overflow="hidden"><path d="M3.938 22.313 8.813 22.313 8.813 15.188 3.938 15.188 3.938 22.312ZM5.063 16.313 7.688 16.313 7.688 21.188 5.063 21.188 5.063 16.313ZM10.688 22.313 15.563 22.313 15.563 10.688 10.688 10.688 10.688 22.312ZM11.813 11.813 14.438 11.813 14.438 21.187 11.813 21.187 11.813 11.812ZM17.438 22.313 22.313 22.313 22.313 3.938 17.438 3.938 17.438 22.313ZM18.563 5.063 21.188 5.063 21.188 21.188 18.563 21.188 18.563 5.063ZM11.25 1.688 11.25 2.813 13.642 2.813 8.767 7.686 5.03 7.684 1.521 11.19 1.521 12.781 5.494 8.81 9.233 8.814 14.438 3.609 14.438 5.985 15.563 5.985 15.563 1.688 11.25 1.688Z" fill="#0000CA"/></svg>