<svg viewBox="0 0 24 24" xmlns="http://www.w3.org/2000/svg" xmlns:xlink="http://www.w3.org/1999/xlink" fill="none" overflow="hidden"><path d="M14.25 16.688 14.25 17.813 15.254 17.813C15.5157 18.911 16.4962 19.6864 17.625 19.688 18.971 19.6869 20.0619 18.596 20.063 17.25 20.0619 15.904 18.971 14.8131 17.625 14.812 16.475 14.812 15.508 15.614 15.254 16.688L14.25 16.688ZM17.625 15.938C18.349 15.938 18.938 16.526 18.938 17.25 18.9033 17.9749 18.2876 18.5344 17.5627 18.4997 16.8864 18.4674 16.3453 17.9264 16.313 17.25 16.313 16.526 16.901 15.937 17.625 15.937ZM12.75 16.688 11.25 16.688 11.25 17.813 12.75 17.813 12.75 16.688ZM5.955 9.75 1.687 14.017 1.687 22.313 11.063 22.313 11.063 18 9.937 18 9.937 21.188 2.814 21.188 2.814 14.483 6.376 10.92 9.939 14.483 9.939 16.5 11.063 16.5 11.063 14.017 6.795 9.75 5.955 9.75Z" fill="#0000CA"/><path d="M12.938 1.688 12.938 16.5 14.062 16.5 14.062 2.812 21.188 2.812 21.188 21.187 14.063 21.187 14.063 18 12.937 18 12.937 22.313 22.313 22.313 22.313 1.688 12.938 1.688ZM6.375 14.813C5.02938 14.8141 3.93865 15.9044 3.937 17.25 3.9381 18.596 5.02899 19.6869 6.375 19.688 7.525 19.688 8.492 18.886 8.746 17.813L9.75 17.813 9.75 16.688 8.746 16.688C8.48466 15.5896 7.50409 14.8137 6.375 14.812ZM6.375 18.563C5.65008 18.5624 5.06255 17.9749 5.062 17.25 5.09667 16.5251 5.71239 15.9656 6.43727 16.0003 7.11363 16.0326 7.65465 16.5736 7.687 17.25 7.687 17.974 7.099 18.563 6.375 18.563Z" fill="#0000CA"/><path d="M19.5 4.688 15.75 4.688 15.75 5.813 19.5 5.813 19.5 4.688ZM19.5 7.688 15.75 7.688 15.75 8.813 19.5 8.813 19.5 7.687ZM19.5 10.688 15.75 10.688 15.75 11.812 19.5 11.812 19.5 10.688Z" fill="#0000CA"/></svg>