<svg viewBox="0 0 24 24" xmlns="http://www.w3.org/2000/svg" xmlns:xlink="http://www.w3.org/1999/xlink" fill="none" overflow="hidden"><path d="M15.775 8.25 11.495 15.586 9.41 13.5 7.819 13.5 10.819 16.5 12.265 16.5 17.078 8.25 15.775 8.25Z" stroke="none" stroke-width="1" stroke-linecap="butt" stroke-linejoin="miter" stroke-miterlimit="4" fill="#0000CA" fill-opacity="1"/><path d="M20.063 3.188 15.75 3.188 15.75 4.312 18.938 4.312 18.938 21.187 5.063 21.187 5.063 4.313 8.25 4.313 8.25 3.188 3.937 3.188 3.937 22.313 20.062 22.313 20.062 3.188ZM15.75 1.688 8.25 1.688 8.25 2.813 15.75 2.813 15.75 1.687Z" stroke="none" stroke-width="1" stroke-linecap="butt" stroke-linejoin="miter" stroke-miterlimit="4" fill="#0000CA" fill-opacity="1"/><path d="M15.75 4.688 8.25 4.688 8.25 5.813 15.75 5.813 15.75 4.688Z" stroke="none" stroke-width="1" stroke-linecap="butt" stroke-linejoin="miter" stroke-miterlimit="4" fill="#0000CA" fill-opacity="1"/></svg>