<svg viewBox="0 0 24 24" xmlns="http://www.w3.org/2000/svg" xmlns:xlink="http://www.w3.org/1999/xlink" fill="none" overflow="hidden"><path d="M16.744 15.938 21.188 20.7 21.188 3.75 22.313 3.75 22.313 22.5 21.328 22.5 16.256 17.062 3 17.062 3 15.937 16.744 15.937ZM2.813 3.75 1.687 3.75 1.687 15.75 2.812 15.75 2.812 3.75ZM21 2.438 3 2.438 3 3.562 21 3.562 21 2.438Z" stroke="none" stroke-width="1" stroke-linecap="butt" stroke-linejoin="miter" stroke-miterlimit="4" fill="#0000CA" fill-opacity="1"/><path d="M18 7.688C19.134 7.688 20.063 8.616 20.063 9.75 20.0597 10.888 19.138 11.8097 18 11.813 16.862 11.8097 15.9403 10.888 15.937 9.75 15.9408 8.61223 16.8622 7.69084 18 7.687ZM18 10.688C18.5176 10.6869 18.9369 10.2676 18.938 9.75 18.9369 9.23241 18.5176 8.8131 18 8.812 17.4824 8.8131 17.0631 9.23241 17.062 9.75 17.0631 10.2676 17.4824 10.6869 18 10.688ZM12 7.688C13.134 7.688 14.063 8.616 14.063 9.75 14.0597 10.888 13.138 11.8097 12 11.813 10.862 11.8097 9.9403 10.888 9.937 9.75 9.94084 8.61223 10.8622 7.69084 12 7.687ZM12 10.688C12.5176 10.6869 12.9369 10.2676 12.938 9.75 12.9369 9.23241 12.5176 8.8131 12 8.812 11.4824 8.8131 11.0631 9.23241 11.062 9.75 11.0631 10.2676 11.4824 10.6869 12 10.688ZM6 7.688C7.134 7.688 8.063 8.616 8.063 9.75 8.0597 10.888 7.138 11.8097 6 11.813 4.862 11.8097 3.94029 10.888 3.937 9.75 3.94084 8.61223 4.86223 7.69084 6 7.687ZM6 10.688C6.51759 10.6869 6.9369 10.2676 6.938 9.75 6.9369 9.23241 6.51759 8.8131 6 8.812 5.48241 8.8131 5.0631 9.23241 5.062 9.75 5.0631 10.2676 5.48241 10.6869 6 10.688Z" stroke="none" stroke-width="1" stroke-linecap="butt" stroke-linejoin="miter" stroke-miterlimit="4" fill="#0000CA" fill-opacity="1"/></svg>