<svg viewBox="0 0 24 24" xmlns="http://www.w3.org/2000/svg" xmlns:xlink="http://www.w3.org/1999/xlink" fill="none" overflow="hidden"><defs><clipPath id="Icon_Icons_Misc_Target-Detect=300__a"><path d="M0 0 24 0 24 24 0 24Z" fill="#FFFFFF"/></clipPath></defs><g fill="#000000" clip-path="url(#Icon_Icons_Misc_Target-Detect=300__a)"><path d="M6.615 11.25C6.95379 8.8444 8.8444 6.95379 11.25 6.615L11.25 5.482C8.22256 5.8348 5.8348 8.22256 5.482 11.25L6.615 11.25ZM17.384 11.25 18.518 11.25C18.1652 8.22256 15.7774 5.8348 12.75 5.482L12.75 6.615C15.1552 6.9542 17.0453 8.84471 17.384 11.25ZM6.615 12.75 5.482 12.75C5.8348 15.7774 8.22256 18.1652 11.25 18.518L11.25 17.384C8.84471 17.0453 6.9542 15.1552 6.615 12.75ZM12.75 17.384 12.75 18.518C15.7773 18.1649 18.1649 15.7773 18.518 12.75L17.384 12.75C17.0449 15.1549 15.1549 17.0449 12.75 17.384ZM21.91 11.25 23.036 11.25C22.666 5.746 18.253 1.334 12.75 0.963L12.75 2.091C17.633 2.457 21.543 6.367 21.91 11.25ZM2.09 12.75 0.964 12.75C1.334 18.253 5.748 22.666 11.251 23.036L11.251 21.91C6.368 21.544 2.458 17.634 2.091 12.75ZM11.25 2.09 11.25 0.964C5.746 1.333 1.334 5.746 0.963 11.25L2.091 11.25C2.457 6.367 6.367 2.457 11.25 2.09ZM12.75 21.91 12.75 23.036C18.253 22.666 22.666 18.253 23.036 12.75L21.91 12.75C21.544 17.633 17.634 21.543 12.75 21.91ZM14.71 12.75C14.727 12.688 14.743 12.626 14.756 12.562L17.198 12.562 17.198 11.437 14.756 11.437C14.5282 10.3338 13.6662 9.4718 12.563 9.244L12.563 6.803 11.437 6.803 11.437 9.244C10.334 9.47204 9.47204 10.334 9.244 11.437L6.803 11.437 6.803 12.562 9.244 12.562C9.4718 13.6652 10.3338 14.5272 11.437 14.755L11.437 17.197 12.562 17.197 12.562 14.756C13.5972 14.5424 14.4262 13.7682 14.71 12.75ZM12 13.687C11.0702 13.6821 10.3175 12.9298 10.312 12 10.3169 11.0698 11.0698 10.3169 12 10.312 12.9302 10.3169 13.6831 11.0698 13.688 12 13.6831 12.9302 12.9302 13.6831 12 13.688Z" stroke="none" stroke-width="1" stroke-linecap="butt" stroke-linejoin="miter" stroke-miterlimit="4" fill="#0000CA" fill-opacity="1"/></g></svg>