<svg viewBox="0 0 24 24" xmlns="http://www.w3.org/2000/svg" xmlns:xlink="http://www.w3.org/1999/xlink" fill="none" overflow="hidden"><path d="M12 2.89 15.23 4.653 15.23 3.37 12 1.61 8.25 3.655 8.25 4.937 12 2.89ZM19.688 16.18 16.5 18.062 16.5 19.368 20.813 16.82 20.813 11.25 19.688 11.25 19.688 16.178ZM4.313 16.18 4.313 11.25 3.188 11.25 3.188 16.821 7.5 19.37 7.5 18.064 4.312 16.18ZM5.436 9C6.67975 8.0718 6.93555 6.3111 6.00736 5.06735 5.47583 4.35512 4.6387 3.93631 3.75 3.938 2.19808 3.93504 0.937608 5.19072 0.934652 6.74264 0.932959 7.63135 1.35177 8.46847 2.064 9 3.0621 9.75235 4.4379 9.75235 5.436 9ZM2.063 6.75C2.063 5.82 2.82 5.063 3.75 5.063 4.68 5.063 5.438 5.82 5.438 6.75 5.4369 7.6818 4.6818 8.4369 3.75 8.438 2.8182 8.4369 2.0631 7.6818 2.062 6.75ZM17.47 6.317C17.3099 7.34533 17.7317 8.37787 18.566 9 19.5639 9.75184 20.9391 9.75184 21.937 9 23.1807 8.0718 23.4366 6.3111 22.5084 5.06735 21.9768 4.35512 21.1397 3.93631 20.251 3.938 18.8644 3.93774 17.6844 4.94793 17.471 6.318ZM20.25 5.063C21.18 5.063 21.938 5.82 21.938 6.75 21.9369 7.6818 21.1818 8.4369 20.25 8.438 19.3182 8.4369 18.5631 7.6818 18.562 6.75 18.562 5.82 19.32 5.063 20.25 5.063ZM14.423 18.825C13.9178 17.9664 12.9962 17.4388 12 17.438 10.4467 17.4673 9.21124 18.7502 9.24054 20.3035 9.26905 21.8156 10.488 23.0345 12 23.063 13.5541 23.0607 14.8122 21.799 14.8099 20.2449 14.8092 19.7457 14.6756 19.2556 14.423 18.825ZM12 21.938C11.0682 21.9369 10.3131 21.1818 10.312 20.25 10.312 19.32 11.07 18.563 12 18.563 12.93 18.563 13.688 19.32 13.688 20.25 13.6869 21.1818 12.9318 21.9369 12 21.938Z" stroke="none" stroke-width="1" stroke-linecap="butt" stroke-linejoin="miter" stroke-miterlimit="4" fill="#0000CA" fill-opacity="1"/></svg>