<svg viewBox="0 0 24 24" xmlns="http://www.w3.org/2000/svg" xmlns:xlink="http://www.w3.org/1999/xlink" fill="none" overflow="hidden"><path d="M22.5 21.188 1.5 21.188 1.5 22.313 22.5 22.313 22.5 21.188ZM7.313 19.5 7.313 12.187 3.188 12.187 3.188 19.5 4.312 19.5 4.312 13.312 6.187 13.312 6.187 19.5 7.312 19.5ZM20.813 19.5 20.813 1.687 16.688 1.687 16.688 19.5 17.813 19.5 17.813 2.812 19.688 2.812 19.688 19.5 20.813 19.5ZM14.063 19.5 14.063 6.937 9.936 6.937 9.936 19.5 11.062 19.5 11.062 8.062 12.936 8.062 12.936 19.5 14.062 19.5Z" fill="#0000CA"/></svg>