<svg viewBox="0 0 24 24" xmlns="http://www.w3.org/2000/svg" xmlns:xlink="http://www.w3.org/1999/xlink" fill="none" overflow="hidden"><path d="M18 11.438 16.5 11.438 16.5 12.562 18 12.562C20.3807 12.5598 22.3102 10.6307 22.313 8.25 22.3108 5.86891 20.3811 3.93921 18 3.937L9 3.937 9 5.063 18 5.063C19.7596 5.06465 21.1858 6.49039 21.188 8.25 21.1863 10.01 19.76 11.4363 18 11.438ZM2.813 15.75C2.81465 13.9904 4.24039 12.5642 6 12.562L7.5 12.562 7.5 11.438 6 11.438C3.6193 11.4402 1.68976 13.3693 1.687 15.75 1.68921 18.1311 3.61891 20.0608 6 20.063L15 20.063 15 18.938 6 18.938C4.24 18.9363 2.81365 17.51 2.812 15.75Z" fill="#0000CA"/><path d="M14.813 12C14.8113 10.4471 13.5529 9.18865 12 9.187 10.4471 9.18865 9.18865 10.4471 9.187 12 9.18865 13.5529 10.4471 14.8113 12 14.813 13.5529 14.8113 14.8113 13.5529 14.813 12ZM10.313 12C10.313 11.07 11.069 10.312 12 10.312 12.93 10.312 13.688 11.07 13.688 12 13.6869 12.9318 12.9318 13.6869 12 13.688 11.0682 13.6869 10.3131 12.9318 10.312 12ZM16.688 22.313 22.313 22.313 22.313 16.688 16.688 16.688 16.688 22.313ZM17.813 17.813 21.188 17.813 21.188 21.188 17.813 21.188 17.813 17.813ZM7.313 1.688 1.688 1.688 1.688 7.313 7.313 7.313 7.313 1.688ZM6.188 6.188 2.813 6.188 2.813 2.813 6.187 2.813 6.187 6.187Z" fill="#0000CA"/></svg>