<svg viewBox="0 0 24 24" xmlns="http://www.w3.org/2000/svg" xmlns:xlink="http://www.w3.org/1999/xlink" fill="none" overflow="hidden"><path d="M11.438 21C11.4141 21.518 10.9747 21.9186 10.4567 21.8947 9.97213 21.8723 9.58438 21.4845 9.562 21L9.562 20.246 8.438 20.246 8.438 21C8.438 22.137 9.363 23.063 10.5 23.063 11.6389 23.0619 12.5619 22.1389 12.563 21L12.563 14.25 11.437 14.25 11.437 21ZM12.563 1.703 12.563 0.75 11.437 0.75 11.437 1.703C6.012 1.996 1.687 6.503 1.687 12.002L1.687 12.564 21.75 12.564 22.313 12.559 22.313 11.996C22.313 6.501 17.988 1.996 12.563 1.703ZM2.83 11.439C3.089 7.167 6.28 3.674 10.41 2.95 8.625 4.85 7.688 7.17 7.688 9.746L8.813 9.746C8.813 7.133 9.908 4.809 11.983 2.998L12.019 2.998C14.094 4.809 15.189 7.133 15.189 9.746L16.313 9.746C16.313 7.17 15.377 4.849 13.59 2.95 17.723 3.674 20.915 7.167 21.172 11.44L2.83 11.44ZM19.5 17.438 16.5 17.438 16.5 18.563 19.5 18.563 19.5 17.438Z" fill="#0000CA"/><path d="M17.989 13.688C15.6083 13.6902 13.6788 15.6193 13.676 18 13.6782 20.3811 15.6079 22.3108 17.989 22.313 20.3693 22.3097 22.2978 20.3803 22.3 18 22.2978 15.6193 20.3687 13.6898 17.988 13.687ZM17.989 21.188C16.2286 21.1869 14.8017 19.7604 14.8 18 14.8017 16.24 16.228 14.8137 17.988 14.812 19.748 14.8137 21.1743 16.24 21.176 18 21.1743 19.7596 19.7486 21.1858 17.989 21.188Z" fill="#0000CA"/></svg>