<svg viewBox="0 0 24 24" xmlns="http://www.w3.org/2000/svg" xmlns:xlink="http://www.w3.org/1999/xlink" fill="none" overflow="hidden"><path d="M4.313 3.563 6 3.563 6 2.437 3.187 2.437 3.187 5.25 4.313 5.25 4.313 3.562ZM20.812 12.746 19.687 12.746 19.687 21.187 4.312 21.187 4.312 6.75 3.188 6.75 3.188 22.313 20.813 22.313 20.813 12.746ZM20.812 2.438 18 2.438 18 3.562 19.687 3.562 19.687 5.25 20.812 5.25 20.812 2.438ZM8.813 1.5 7.687 1.5 7.687 3.75 8.812 3.75 8.812 1.5ZM16.313 1.5 15.188 1.5 15.188 3.75 16.312 3.75 16.312 1.5ZM13.5 2.438 10.5 2.438 10.5 3.562 13.5 3.562 13.5 2.438ZM18 5.438 4.5 5.438 4.5 6.563 18 6.563 18 5.438Z" stroke="none" stroke-width="1" stroke-linecap="butt" stroke-linejoin="miter" stroke-miterlimit="4" fill="#0000CA" fill-opacity="1"/><path d="M21.046 5.999 20.205 5.999 9.188 17.017 9.188 19.312 11.483 19.312 22.5 8.294 22.5 7.454 21.046 5.999ZM11.017 18.188 10.313 18.188 10.313 17.483 20.624 7.169 21.328 7.874 11.016 18.188Z" stroke="none" stroke-width="1" stroke-linecap="butt" stroke-linejoin="miter" stroke-miterlimit="4" fill="#0000CA" fill-opacity="1"/></svg>