<svg viewBox="0 0 24 24" xmlns="http://www.w3.org/2000/svg" xmlns:xlink="http://www.w3.org/1999/xlink" fill="none" overflow="hidden"><path d="M14.813 1.688 9.186 1.688 9.186 7.313 14.812 7.313 14.812 1.688ZM13.687 6.188 10.313 6.188 10.313 2.813 13.687 2.813 13.687 6.187ZM1.688 22.313 7.313 22.313 7.313 16.688 1.688 16.688 1.688 22.313ZM2.813 17.813 6.187 17.813 6.187 21.188 2.813 21.188 2.813 17.813ZM16.688 16.688 16.688 22.313 22.313 22.313 22.313 16.688 16.688 16.688ZM21.188 21.188 17.813 21.188 17.813 17.813 21.188 17.813 21.188 21.188ZM3.938 14.996 5.062 14.996 5.062 5.062 7.501 5.062 7.501 3.938 3.937 3.938 3.937 14.998ZM18.938 14.996 20.063 14.996 20.063 3.937 16.5 3.937 16.5 5.063 18.936 5.063 18.936 14.996ZM15 18.938 9 18.938 9 20.063 15 20.063 15 18.938Z" fill="#0000CA"/></svg>