<svg viewBox="0 0 24 24" xmlns="http://www.w3.org/2000/svg" xmlns:xlink="http://www.w3.org/1999/xlink" fill="none" overflow="hidden"><path d="M19.875 17.438C19.406 17.438 18.968 17.571 18.596 17.801L16.486 15.691C17.344 14.6528 17.8129 13.3478 17.812 12.001 17.8135 10.6535 17.3445 9.34767 16.486 8.309L18.596 6.199C18.968 6.429 19.406 6.563 19.875 6.563 21.2206 6.56135 22.3109 5.47062 22.312 4.125 22.3109 2.77938 21.2206 1.68865 19.875 1.687 18.529 1.6881 17.4381 2.77899 17.437 4.125 17.437 4.594 17.571 5.032 17.801 5.404L15.691 7.514C14.6527 6.65542 13.3473 6.18611 12 6.187 10.653 6.18588 9.34775 6.65444 8.309 7.512L6.199 5.402C6.429 5.031 6.562 4.592 6.562 4.124 6.5609 2.77838 5.47062 1.68765 4.125 1.686 2.77899 1.6871 1.6881 2.77799 1.687 4.124 1.6881 5.47001 2.77899 6.5609 4.125 6.562 4.593 6.562 5.031 6.428 5.403 6.198L7.513 8.308C6.65456 9.34671 6.18559 10.6525 6.187 12 6.187 13.4 6.685 14.687 7.513 15.691L5.403 17.801C5.01916 17.5632 4.57651 17.4375 4.125 17.438 2.77938 17.4391 1.68865 18.5294 1.687 19.875 1.6881 21.221 2.77899 22.3119 4.125 22.313 5.47062 22.3113 6.5609 21.2206 6.562 19.875 6.562 19.407 6.429 18.968 6.199 18.596L8.309 16.486C9.34704 17.3444 10.652 17.8137 11.999 17.813 13.3465 17.8143 14.6522 17.3454 15.691 16.487L17.801 18.597C17.571 18.968 17.437 19.407 17.437 19.875 17.4381 21.221 18.529 22.3119 19.875 22.313 21.2206 22.3113 22.3109 21.2206 22.312 19.875 22.3103 18.5298 21.2202 17.4397 19.875 17.438ZM19.875 2.813C20.5999 2.83301 21.1713 3.43686 21.1513 4.16173 21.132 4.85847 20.5717 5.41877 19.875 5.438 19.1501 5.43745 18.5626 4.84992 18.562 4.125 18.562 3.401 19.152 2.813 19.875 2.813ZM4.125 5.438C3.40008 5.43745 2.81255 4.84992 2.812 4.125 2.84667 3.40013 3.46239 2.8406 4.18727 2.87527 4.86363 2.90761 5.40465 3.44864 5.437 4.125 5.437 4.849 4.849 5.438 4.125 5.438ZM4.125 21.188C3.40008 21.1874 2.81255 20.5999 2.812 19.875 2.84667 19.1501 3.46239 18.5906 4.18727 18.6253 4.86363 18.6576 5.40465 19.1986 5.437 19.875 5.437 20.599 4.849 21.188 4.125 21.188ZM12 16.688C9.41203 16.6852 7.31476 14.588 7.312 12 7.31531 9.41242 9.41242 7.31575 12 7.313 14.5872 7.31631 16.6837 9.41281 16.687 12 16.6842 14.5876 14.5876 16.6847 12 16.688ZM19.875 21.188C19.1501 21.1874 18.5626 20.5999 18.562 19.875 18.5967 19.1501 19.2124 18.5906 19.9373 18.6253 20.6136 18.6576 21.1547 19.1986 21.187 19.875 21.187 20.599 20.599 21.188 19.875 21.188Z" fill="#0000CA"/><path d="M10.312 9.747 9.187 9.747 9.187 14.25 10.312 14.25 10.312 9.747ZM12.562 11.246 11.437 11.246 11.437 14.25 12.562 14.25 12.562 11.246ZM14.812 12.746 13.687 12.746 13.687 14.25 14.812 14.25 14.812 12.746Z" fill="#0000CA"/></svg>