<svg viewBox="0 0 24 24" xmlns="http://www.w3.org/2000/svg" xmlns:xlink="http://www.w3.org/1999/xlink" fill="none" overflow="hidden"><path d="M7.24 8.313 8.365 8.313 8.365 5.124 21.5 5.124 21.5 19 8.366 19 8.376 15.814 7.25 15.811 7.238 20.125 22.625 20.125 22.625 4 7.24 4 7.24 8.313Z" stroke="none" stroke-width="1" stroke-linecap="butt" stroke-linejoin="miter" stroke-miterlimit="4" fill="#0000CA" fill-opacity="1"/><path d="M10.069 12.715 10.069 11.38 3.554 6.812 2.006 6.812 2 16.56 3.662 16.56 10.069 12.716ZM3.13 7.89 9.03 12.026 3.125 15.569 3.13 7.889ZM19.819 7 10.069 7 10.069 8.125 19.819 8.125 19.819 7ZM19.819 16 10.069 16 10.069 17.125 19.819 17.125 19.819 16Z" stroke="none" stroke-width="1" stroke-linecap="butt" stroke-linejoin="miter" stroke-miterlimit="4" fill="#0000CA" fill-opacity="1"/></svg>