<svg viewBox="0 0 24 24" xmlns="http://www.w3.org/2000/svg" xmlns:xlink="http://www.w3.org/1999/xlink" fill="none" overflow="hidden"><path d="M14.891 13.497 13.171 13.497C14.0632 14.2092 14.8777 15.0137 15.601 15.897L8.4 15.897C9.27764 14.8239 10.2892 13.8678 11.41 13.052L13.261 11.706C16.6585 9.22451 19.0476 5.60135 19.99 1.501L18.835 1.501C18.6303 2.33083 18.3608 3.14332 18.029 3.931L5.97 3.93C5.63851 3.1423 5.36935 2.32981 5.165 1.5L4.01 1.5C4.80473 4.9625 6.6353 8.10077 9.258 10.497L11.002 10.497C10.0772 9.77935 9.23297 8.96358 8.484 8.064L15.517 8.064C14.6611 9.09183 13.6813 10.0098 12.6 10.797L10.748 12.143C10.1747 12.5602 9.62765 13.0124 9.11 13.497 6.53171 15.9116 4.74498 19.0503 3.985 22.5L5.138 22.5C5.335 21.664 5.598 20.847 5.923 20.055L18.078 20.058C18.403 20.848 18.665 21.666 18.862 22.502L20.016 22.502C19.2562 19.052 17.4695 15.9129 14.891 13.498ZM7.626 6.937C7.20661 6.3354 6.82809 5.70632 6.493 5.054L17.506 5.056C17.1715 5.70791 16.7936 6.33665 16.375 6.938L7.625 6.938ZM6.435 18.93C6.765 18.27 7.141 17.634 7.558 17.024L16.442 17.024C16.86 17.634 17.236 18.272 17.567 18.932L6.435 18.93Z" stroke="none" stroke-width="1" stroke-linecap="butt" stroke-linejoin="miter" stroke-miterlimit="4" fill="#0000CA" fill-opacity="1"/></svg>