<svg viewBox="0 0 24 24" xmlns="http://www.w3.org/2000/svg" xmlns:xlink="http://www.w3.org/1999/xlink" fill="none" overflow="hidden"><defs><clipPath id="Icon_Icons_Tools_Cloud Sharing 2=300__a"><path d="M0 0 24 0 24 24 0 24Z" fill="#FFFFFF"/></clipPath></defs><g fill="#000000" clip-path="url(#Icon_Icons_Tools_Cloud Sharing 2=300__a)"><path d="M4.5 8.438C2.53351 8.4402 0.939755 10.0335 0.937 12 0.935261 13.9661 2.52772 15.5614 4.49385 15.5631 5.64352 15.5642 6.72291 15.0099 7.392 14.075L14.25 17.504 14.25 16.246 7.898 13.07C8.11812 12.3736 8.11812 11.6264 7.898 10.93L14.25 7.754 14.25 6.496 7.393 9.925C6.72494 8.99162 5.64783 8.43761 4.5 8.437ZM4.5 14.438C3.15399 14.4369 2.0631 13.346 2.062 12 2.0631 10.654 3.15399 9.5631 4.5 9.562 5.84601 9.5631 6.9369 10.654 6.938 12 6.9369 13.346 5.84601 14.4369 4.5 14.438ZM19.5 8.063C21.4669 8.0608 23.0608 6.46688 23.063 4.5 23.0608 2.53312 21.4669 0.939204 19.5 0.936999 17.5331 0.939204 15.9392 2.53312 15.937 4.5 15.9392 6.46688 17.5331 8.06079 19.5 8.063ZM19.5 2.063C20.8456 2.0641 21.9363 3.15438 21.938 4.5 21.9369 5.84601 20.846 6.9369 19.5 6.938 18.154 6.9369 17.0631 5.84601 17.062 4.5 17.0631 3.15399 18.154 2.0631 19.5 2.062ZM19.5 15.938C17.5335 15.9402 15.9398 17.5335 15.937 19.5 15.9392 21.4669 17.5331 23.0608 19.5 23.063 21.4669 23.0608 23.0608 21.4669 23.063 19.5 23.0608 17.5331 21.4669 15.9392 19.5 15.937ZM19.5 21.938C18.154 21.9369 17.0631 20.846 17.062 19.5 17.0631 18.154 18.154 17.0631 19.5 17.062 20.846 17.0631 21.9369 18.154 21.938 19.5 21.9369 20.846 20.846 21.9369 19.5 21.938Z" stroke="none" stroke-width="1" stroke-linecap="butt" stroke-linejoin="miter" stroke-miterlimit="4" fill="#0000CA" fill-opacity="1"/></g></svg>