<svg viewBox="0 0 24 24" xmlns="http://www.w3.org/2000/svg" xmlns:xlink="http://www.w3.org/1999/xlink" fill="none" overflow="hidden"><path d="M18.963 15.11C19.316 15.393 19.763 15.563 20.25 15.563 21.3885 15.5613 22.3109 14.6385 22.312 13.5 22.3109 12.3615 21.3885 11.4387 20.25 11.437 19.1095 11.4388 18.1865 12.3648 18.1882 13.5052 18.1886 13.7403 18.2291 13.9736 18.308 14.195L16.287 15.64C15.9222 15.3466 15.4681 15.1868 15 15.187 13.8611 15.1881 12.9381 16.1111 12.937 17.25 12.937 18.387 13.863 19.313 15 19.313 15.561 19.313 16.07 19.087 16.442 18.723L18.248 19.754C17.9757 20.8615 18.6528 21.98 19.7603 22.2523 19.9205 22.2917 20.085 22.3117 20.25 22.312 21.3881 22.3103 22.3103 21.3881 22.312 20.25 22.3109 19.1115 21.3885 18.1887 20.25 18.187 19.689 18.187 19.18 18.413 18.807 18.777L17.002 17.746C17.0999 17.3518 17.079 16.9374 16.942 16.555L18.963 15.11ZM20.25 12.563C20.7675 12.5968 21.1596 13.0438 21.1257 13.5613 21.095 14.0316 20.7203 14.4063 20.25 14.437 19.7325 14.4032 19.3404 13.9562 19.3743 13.4387 19.405 12.9684 19.7797 12.5937 20.25 12.563ZM15 18.186C14.4822 18.1567 14.0863 17.7132 14.1156 17.1954 14.1425 16.7186 14.5232 16.338 15 16.311 15.5178 16.3403 15.9137 16.7838 15.8844 17.3016 15.8575 17.7784 15.4768 18.159 15 18.186ZM20.25 19.311C20.7678 19.3403 21.1637 19.7838 21.1344 20.3016 21.1075 20.7784 20.7268 21.159 20.25 21.186 19.7322 21.1567 19.3363 20.7132 19.3656 20.1954 19.3925 19.7186 19.7732 19.338 20.25 19.311ZM22.294 9C22.2144 8.16366 21.8684 7.37497 21.307 6.75 20.6766 6.04476 19.8132 5.59033 18.875 5.47 17.8666 2.74853 15.2723 0.941064 12.37 0.938 10.5775 0.933193 8.84924 1.60535 7.531 2.82 6.324 3.934 5.601 5.38 5.462 6.94 3.35386 7.02992 1.69037 8.76395 1.688 10.874 1.6902 13.0476 3.45141 14.8092 5.625 14.812L12.001 14.812 12.001 13.686 5.625 13.686C4.0725 13.6843 2.8142 12.4265 2.812 10.874 2.81365 9.32111 4.07211 8.06265 5.625 8.061L6.562 8.061 6.562 7.5C6.562 6.046 7.177 4.678 8.294 3.648 9.40854 2.63145 10.8615 2.06609 12.37 2.062 14.6602 2.06471 16.7356 3.41148 17.671 5.502 15.8 5.84401 14.4398 7.47297 14.437 9.375L14.437 9.75 15.562 9.75 15.562 9.375C15.5637 7.82211 16.8221 6.56365 18.375 6.562 19.9275 6.5642 21.1853 7.8225 21.187 9.375L21.187 9.75 22.312 9.75 22.312 9.375C22.3121 9.24978 22.3061 9.12463 22.294 9Z" fill="#0000CA"/></svg>