<svg viewBox="0 0 24 24" xmlns="http://www.w3.org/2000/svg" xmlns:xlink="http://www.w3.org/1999/xlink" fill="none" overflow="hidden"><path d="M15.563 21 14.437 21 14.437 15.75C14.4359 14.4044 13.3456 13.3137 12 13.312 10.654 13.3131 9.5631 14.404 9.562 15.75L9.562 20.996 8.438 20.996 8.438 15.75C8.4402 13.7835 10.0335 12.1898 12 12.187 13.9669 12.1892 15.5608 13.7831 15.563 15.75L15.563 21Z" stroke="none" stroke-width="1" stroke-linecap="butt" stroke-linejoin="miter" stroke-miterlimit="4" fill="#0000CA" fill-opacity="1"/><path d="M12.796 1.5 11.205 1.5 1.687 11.017 1.687 22.313 8.25 22.313 8.25 21.188 2.812 21.188 2.812 11.483 12 2.295 21.188 11.483 21.188 21.187 15.75 21.187 15.75 22.312 22.313 22.312 22.313 11.018 12.796 1.5Z" stroke="none" stroke-width="1" stroke-linecap="butt" stroke-linejoin="miter" stroke-miterlimit="4" fill="#0000CA" fill-opacity="1"/></svg>